<svg width="99" height="72" viewBox="0 0 99 72" fill="none" xmlns="http://www.w3.org/2000/svg">
<path d="M25.6475 70.3006H26.3975V69.5506V14.8896V14.1396H25.6475H16.5666H16.2567L16.0372 14.3584L2.11808 28.2276L1.58489 28.7588L2.11808 29.2901L8.51938 35.6685L9.04876 36.1959L9.57814 35.6685L15.8166 29.4524V69.5506V70.3006H16.5666H25.6475ZM35.3027 68.808L35.309 68.8146L35.3155 68.821C36.5 70.0013 37.9565 70.5973 39.641 70.5973C41.3255 70.5973 42.782 70.0013 43.9665 68.821C45.1511 67.6407 45.7502 66.1881 45.7502 64.5073C45.7502 62.8289 45.1523 61.3958 43.96 60.2612C42.7767 59.0852 41.3224 58.4914 39.641 58.4914C38.0016 58.4914 36.5743 59.0905 35.3964 60.2612C34.2041 61.3958 33.6062 62.8289 33.6062 64.5073C33.6062 66.1766 34.1721 67.6251 35.3027 68.808Z" stroke="white" stroke-opacity="0.2" stroke-width="1.5"/>
<mask id="path-2-outside-1_684_2802" maskUnits="userSpaceOnUse" x="47" y="13" width="50" height="35" fill="black">
<rect fill="white" x="47" y="13" width="50" height="35"/>
<path d="M64.1686 19.2922C64.0204 19.2329 63.8425 19.1291 63.6349 18.9809C63.4274 18.8326 63.1309 18.6992 62.7454 18.5806C62.36 18.4324 61.8708 18.3138 61.2778 18.2248C60.6848 18.1359 59.9287 18.121 59.0096 18.1803V13.6884C60.3141 13.718 61.6336 13.8663 62.9678 14.1331C64.3317 14.3703 65.4287 14.7558 66.2589 15.2895C66.081 15.6749 65.8735 16.1049 65.6363 16.5793C65.3991 17.024 65.1767 17.4539 64.9692 17.869C64.7616 18.2545 64.5837 18.5806 64.4355 18.8475C64.2872 19.1143 64.1983 19.2626 64.1686 19.2922ZM48.8248 22.8502C48.8248 21.5456 49.0472 20.3744 49.492 19.3367C49.9367 18.2989 50.5297 17.3946 51.2709 16.6237C52.0418 15.8232 52.9313 15.2005 53.9394 14.7558C54.9772 14.2814 56.0594 13.9701 57.1861 13.8218V18.4917C56.2373 18.8178 55.4516 19.396 54.8289 20.2262C54.2063 21.0267 53.895 21.8421 53.895 22.6723C53.895 23.8286 54.2063 24.7626 54.8289 25.4742C55.4516 26.1858 56.2373 26.8085 57.1861 27.3422V32.4123C56.2076 31.9379 55.2292 31.4338 54.2508 30.9001C53.2723 30.3368 52.3828 29.6845 51.5823 28.9432C50.7817 28.202 50.1146 27.3422 49.5809 26.3637C49.0769 25.3853 48.8248 24.2141 48.8248 22.8502ZM49.5364 40.9959C49.9515 41.2331 50.4704 41.4703 51.093 41.7075C51.7453 41.9151 52.4125 42.1226 53.0944 42.3301C53.7764 42.508 54.4583 42.6563 55.1402 42.7749C55.8222 42.8935 56.4597 42.9528 57.0527 42.9528H57.1861V47.1779H57.0971C56.3855 47.1779 55.6443 47.1334 54.8734 47.0445C54.1322 46.9852 53.3761 46.8666 52.6052 46.6887C51.8343 46.5108 51.093 46.2736 50.3814 45.9771C49.6995 45.6509 49.1065 45.2655 48.6025 44.8207L49.5364 40.9959ZM59.0096 28.2316C59.988 28.6764 60.9813 29.1508 61.9894 29.6548C63.0271 30.1589 63.9611 30.7815 64.7913 31.5228C65.6215 32.2344 66.3034 33.109 66.8371 34.1468C67.3708 35.1845 67.6377 36.4743 67.6377 38.0161C67.6377 39.0835 67.4301 40.1212 67.015 41.1293C66.6296 42.1374 66.0662 43.0566 65.325 43.8868C64.6134 44.6873 63.7239 45.3693 62.6565 45.9326C61.5891 46.496 60.3734 46.8666 59.0096 47.0445V42.7749C61.4408 42.1819 62.6565 40.566 62.6565 37.9271C62.6565 36.8894 62.3155 36.0296 61.6336 35.3476C60.9516 34.6657 60.0769 34.0282 59.0096 33.4352V28.2316ZM96.3239 14.2221V17.869H86.5394V47H81.158V17.869H71.3735V14.2221H96.3239Z"/>
</mask>
<path d="M64.1686 19.2922L63.9458 19.8493L64.3131 19.9962L64.5929 19.7165L64.1686 19.2922ZM62.7454 18.5806L62.53 19.1406L62.5493 19.148L62.569 19.1541L62.7454 18.5806ZM59.0096 18.1803H58.4096V18.8203L59.0482 18.7791L59.0096 18.1803ZM59.0096 13.6884L59.0232 13.0885L58.4096 13.0746V13.6884H59.0096ZM62.9678 14.1331L62.8501 14.7215L62.8576 14.723L62.865 14.7243L62.9678 14.1331ZM66.2589 15.2895L66.8037 15.5409L67.0224 15.067L66.5834 14.7848L66.2589 15.2895ZM65.6363 16.5793L66.1657 16.8616L66.1694 16.8546L66.173 16.8476L65.6363 16.5793ZM64.9692 17.869L65.4975 18.1535L65.5018 18.1455L65.5058 18.1374L64.9692 17.869ZM51.2709 16.6237L50.8388 16.2075L50.8384 16.2079L51.2709 16.6237ZM53.9394 14.7558L54.1816 15.3048L54.1889 15.3015L53.9394 14.7558ZM57.1861 13.8218H57.7861V13.1377L57.1078 13.2269L57.1861 13.8218ZM57.1861 18.4917L57.3811 19.0591L57.7861 18.9199V18.4917H57.1861ZM54.8289 20.2262L55.3026 20.5946L55.3089 20.5862L54.8289 20.2262ZM57.1861 27.3421H57.7861V26.9912L57.4802 26.8192L57.1861 27.3421ZM57.1861 32.4123L56.9243 32.9522L57.7861 33.37V32.4123H57.1861ZM54.2508 30.9001L53.9513 31.4202L53.9634 31.4269L54.2508 30.9001ZM49.5809 26.3637L49.0475 26.6385L49.0508 26.6448L49.0542 26.651L49.5809 26.3637ZM49.5364 40.9959L49.8341 40.475L49.1425 40.0798L48.9536 40.8536L49.5364 40.9959ZM51.093 41.7075L50.8794 42.2682L50.8951 42.2742L50.9111 42.2793L51.093 41.7075ZM53.0944 42.3302L52.9197 42.9042L52.9313 42.9077L52.943 42.9107L53.0944 42.3302ZM57.1861 42.9528H57.7861V42.3528H57.1861V42.9528ZM57.1861 47.1779V47.7779H57.7861V47.1779H57.1861ZM54.8734 47.0445L54.9422 46.4484L54.9317 46.4472L54.9212 46.4464L54.8734 47.0445ZM50.3814 45.9771L50.1226 46.5184L50.1365 46.525L50.1507 46.5309L50.3814 45.9771ZM48.6025 44.8207L48.0196 44.6784L47.9336 45.0307L48.2055 45.2706L48.6025 44.8207ZM59.0096 28.2316L59.2578 27.6854L58.4096 27.2998V28.2316H59.0096ZM61.9894 29.6548L61.721 30.1915L61.7272 30.1945L61.9894 29.6548ZM64.7913 31.5228L64.3916 31.9704L64.4008 31.9783L64.7913 31.5228ZM67.015 41.1293L66.4602 40.9009L66.4573 40.9079L66.4546 40.915L67.015 41.1293ZM65.325 43.8868L64.8774 43.4872L64.8765 43.4881L65.325 43.8868ZM59.0096 47.0445H58.4096V47.7278L59.0872 47.6394L59.0096 47.0445ZM59.0096 42.7749L58.8674 42.192L58.4096 42.3036V42.7749H59.0096ZM61.6336 35.3476L62.0578 34.9233L61.6336 35.3476ZM59.0096 33.4352H58.4096V33.7882L58.7182 33.9597L59.0096 33.4352ZM64.3915 18.7351C64.3061 18.701 64.1724 18.6275 63.9837 18.4927L63.2862 19.4691C63.5126 19.6308 63.7346 19.7648 63.9458 19.8493L64.3915 18.7351ZM63.9837 18.4927C63.7023 18.2917 63.3375 18.135 62.9219 18.0072L62.569 19.1541C62.9243 19.2634 63.1525 19.3736 63.2862 19.4691L63.9837 18.4927ZM62.9608 18.0206C62.5208 17.8514 61.9854 17.7243 61.3668 17.6315L61.1888 18.8182C61.7561 18.9033 62.1992 19.0134 62.53 19.1406L62.9608 18.0206ZM61.3668 17.6315C60.7154 17.5338 59.9126 17.5208 58.9709 17.5816L59.0482 18.7791C59.9448 18.7213 60.6541 18.738 61.1888 18.8182L61.3668 17.6315ZM59.6096 18.1803V13.6884H58.4096V18.1803H59.6096ZM58.9959 14.2882C60.2641 14.3171 61.5487 14.4612 62.8501 14.7215L63.0855 13.5448C61.7184 13.2714 60.3642 13.119 59.0232 13.0885L58.9959 14.2882ZM62.865 14.7243C64.1795 14.9529 65.193 15.3175 65.9345 15.7942L66.5834 14.7848C65.6645 14.1941 64.4839 13.7878 63.0706 13.542L62.865 14.7243ZM65.7142 15.0381C65.5394 15.4166 65.3347 15.8408 65.0996 16.3109L66.173 16.8476C66.4123 16.3689 66.6227 15.9332 66.8037 15.5409L65.7142 15.0381ZM65.1069 16.2969C64.8674 16.7459 64.6426 17.1805 64.4325 17.6007L65.5058 18.1374C65.7108 17.7273 65.9308 17.3021 66.1657 16.8616L65.1069 16.2969ZM64.4409 17.5846C64.2341 17.9686 64.0575 18.2923 63.911 18.5561L64.96 19.1389C65.1099 18.869 65.2891 18.5403 65.4975 18.1535L64.4409 17.5846ZM63.911 18.5561C63.8381 18.6874 63.7825 18.7844 63.7431 18.8501C63.7232 18.8833 63.7101 18.9039 63.7028 18.9149C63.6991 18.9205 63.6992 18.9199 63.7025 18.9155C63.7032 18.9146 63.7184 18.8939 63.7444 18.868L64.5929 19.7165C64.6474 19.6619 64.6879 19.6005 64.7012 19.5806C64.7235 19.5471 64.7475 19.5084 64.7721 19.4675C64.8216 19.3849 64.8846 19.2744 64.96 19.1389L63.911 18.5561ZM49.4248 22.8502C49.4248 21.6143 49.6353 20.5254 50.0434 19.573L48.9405 19.1003C48.4591 20.2235 48.2248 21.4769 48.2248 22.8502H49.4248ZM50.0434 19.573C50.4613 18.5981 51.0151 17.7555 51.7034 17.0396L50.8384 16.2079C50.0443 17.0338 49.4121 17.9998 48.9405 19.1003L50.0434 19.573ZM51.7031 17.0399C52.4204 16.2951 53.2455 15.7177 54.1816 15.3047L53.6972 14.2068C52.6172 14.6833 51.6633 15.3513 50.8388 16.2075L51.7031 17.0399ZM54.1889 15.3015C55.1726 14.8518 56.1971 14.5571 57.2644 14.4167L57.1078 13.2269C55.9217 13.383 54.7818 13.711 53.69 14.2101L54.1889 15.3015ZM56.5861 13.8218V18.4917H57.7861V13.8218H56.5861ZM56.991 17.9243C55.9246 18.2909 55.041 18.9434 54.3489 19.8662L55.3089 20.5862C55.8621 19.8486 56.55 19.3448 57.3811 19.0591L56.991 17.9243ZM54.3553 19.8578C53.6694 20.7397 53.295 21.6812 53.295 22.6723H54.495C54.495 22.003 54.7432 21.3138 55.3025 20.5946L54.3553 19.8578ZM53.295 22.6723C53.295 23.9402 53.6389 25.0253 54.3774 25.8693L55.2805 25.0791C54.7737 24.4999 54.495 23.7171 54.495 22.6723H53.295ZM54.3774 25.8693C55.0511 26.6392 55.8926 27.303 56.8919 27.8651L57.4802 26.8192C56.582 26.3139 55.8521 25.7324 55.2805 25.0791L54.3774 25.8693ZM56.5861 27.3421V32.4123H57.7861V27.3421H56.5861ZM57.4479 31.8724C56.4782 31.4023 55.5083 30.9026 54.5381 30.3734L53.9634 31.4269C54.9501 31.965 55.937 32.4735 56.9243 32.9522L57.4479 31.8724ZM54.5501 30.3802C53.6093 29.8385 52.7563 29.2126 51.9899 28.503L51.1746 29.3835C52.0093 30.1563 52.9353 30.8351 53.9514 31.4201L54.5501 30.3802ZM51.9899 28.503C51.2381 27.8069 50.6109 26.999 50.1076 26.0764L49.0542 26.651C49.6183 27.6853 50.3253 28.5971 51.1746 29.3835L51.9899 28.503ZM50.1143 26.0889C49.6633 25.2134 49.4248 24.1409 49.4248 22.8502H48.2248C48.2248 24.2872 48.4905 25.5571 49.0475 26.6385L50.1143 26.0889ZM49.2387 41.5169C49.689 41.7741 50.2382 42.0239 50.8794 42.2682L51.3066 41.1468C50.7026 40.9167 50.2141 40.6921 49.8341 40.475L49.2387 41.5169ZM50.9111 42.2793C51.5659 42.4876 52.2355 42.6959 52.9197 42.9042L53.2691 41.7561C52.5895 41.5493 51.9248 41.3425 51.275 41.1357L50.9111 42.2793ZM52.943 42.9107C53.6407 43.0927 54.3388 43.2445 55.0374 43.366L55.2431 42.1838C54.5778 42.0681 53.912 41.9234 53.2459 41.7496L52.943 42.9107ZM55.0374 43.366C55.7479 43.4896 56.4201 43.5528 57.0527 43.5528V42.3528C56.4993 42.3528 55.8965 42.2974 55.2431 42.1838L55.0374 43.366ZM57.0527 43.5528H57.1861V42.3528H57.0527V43.5528ZM56.5861 42.9528V47.1779H57.7861V42.9528H56.5861ZM57.1861 46.5779H57.0971V47.7779H57.1861V46.5779ZM57.0971 46.5779C56.4105 46.5779 55.6923 46.535 54.9422 46.4484L54.8046 47.6405C55.5963 47.7319 56.3606 47.7779 57.0971 47.7779V46.5779ZM54.9212 46.4464C54.2111 46.3896 53.4842 46.2757 52.7401 46.104L52.4703 47.2733C53.268 47.4574 54.0532 47.5808 54.8256 47.6426L54.9212 46.4464ZM52.7401 46.104C52.0011 45.9335 51.292 45.7065 50.6122 45.4232L50.1507 46.5309C50.8941 46.8407 51.6675 47.0881 52.4703 47.2733L52.7401 46.104ZM50.6403 45.4358C50.0023 45.1307 49.4571 44.7747 48.9994 44.3708L48.2055 45.2706C48.7559 45.7563 49.3967 46.1712 50.1226 46.5184L50.6403 45.4358ZM49.1853 44.9631L50.1193 41.1382L48.9536 40.8536L48.0196 44.6784L49.1853 44.9631ZM58.7613 28.7779C59.7327 29.2194 60.7192 29.6906 61.721 30.1915L62.2577 29.1182C61.2433 28.611 60.2433 28.1334 59.2578 27.6854L58.7613 28.7779ZM61.7272 30.1945C62.7169 30.6753 63.6043 31.2673 64.3917 31.9703L65.1909 31.0752C64.3178 30.2957 63.3373 29.6425 62.2515 29.1151L61.7272 30.1945ZM64.4008 31.9783C65.1681 32.6361 65.803 33.4478 66.3035 34.4212L67.3707 33.8724C66.8039 32.7703 66.0748 31.8327 65.1817 31.0672L64.4008 31.9783ZM66.3035 34.4212C66.7819 35.3512 67.0377 36.5403 67.0377 38.0161H68.2377C68.2377 36.4083 67.9598 35.0178 67.3707 33.8724L66.3035 34.4212ZM67.0377 38.0161C67.0377 39.0034 66.8461 39.9637 66.4602 40.9009L67.5698 41.3578C68.0141 40.2788 68.2377 39.1636 68.2377 38.0161H67.0377ZM66.4546 40.915C66.096 41.8529 65.5716 42.7096 64.8774 43.4872L65.7725 44.2864C66.5608 43.4035 67.1631 42.422 67.5754 41.3436L66.4546 40.915ZM64.8765 43.4881C64.2184 44.2286 63.3882 44.868 62.3764 45.402L62.9365 46.4632C64.0595 45.8706 65.0084 45.146 65.7734 44.2854L64.8765 43.4881ZM62.3764 45.402C61.3803 45.9277 60.2348 46.2796 58.9319 46.4495L59.0872 47.6394C60.5121 47.4536 61.7979 47.0642 62.9365 46.4632L62.3764 45.402ZM59.6096 47.0445V42.7749H58.4096V47.0445H59.6096ZM59.1517 43.3578C60.4691 43.0365 61.5147 42.4221 62.2242 41.4789C62.9312 40.5392 63.2565 39.337 63.2565 37.9271H62.0565C62.0565 39.1562 61.774 40.0813 61.2653 40.7575C60.7592 41.4303 59.9813 41.9203 58.8674 42.192L59.1517 43.3578ZM63.2565 37.9271C63.2565 36.7436 62.8614 35.7269 62.0578 34.9233L61.2093 35.7719C61.7696 36.3322 62.0565 37.0352 62.0565 37.9271H63.2565ZM62.0578 34.9233C61.3276 34.1931 60.4048 33.5239 59.3009 32.9107L58.7182 33.9597C59.7491 34.5324 60.5756 35.1382 61.2093 35.7719L62.0578 34.9233ZM59.6096 33.4352V28.2316H58.4096V33.4352H59.6096ZM96.3239 14.2221H96.9239V13.6221H96.3239V14.2221ZM96.3239 17.869V18.469H96.9239V17.869H96.3239ZM86.5394 17.869V17.269H85.9394V17.869H86.5394ZM86.5394 47V47.6H87.1394V47H86.5394ZM81.158 47H80.558V47.6H81.158V47ZM81.158 17.869H81.758V17.269H81.158V17.869ZM71.3735 17.869H70.7735V18.469H71.3735V17.869ZM71.3735 14.2221V13.6221H70.7735V14.2221H71.3735ZM95.7239 14.2221V17.869H96.9239V14.2221H95.7239ZM96.3239 17.269H86.5394V18.469H96.3239V17.269ZM85.9394 17.869V47H87.1394V17.869H85.9394ZM86.5394 46.4H81.158V47.6H86.5394V46.4ZM81.758 47V17.869H80.558V47H81.758ZM81.158 17.269H71.3735V18.469H81.158V17.269ZM71.9735 17.869V14.2221H70.7735V17.869H71.9735ZM71.3735 14.8221H96.3239V13.6221H71.3735V14.8221Z" fill="#393939" mask="url(#path-2-outside-1_684_2802)"/>
</svg>
