<svg width="21" height="21" viewBox="0 0 21 21" fill="none" xmlns="http://www.w3.org/2000/svg">
<g clip-path="url(#clip0_303_1623)">
<path d="M20.9976 17.7193V5.04649C21.0008 5.01592 21.0008 4.9851 20.9976 4.95454C20.9996 4.93005 20.9996 4.90544 20.9976 4.88095L20.9516 4.80736L20.8965 4.73378H20.8321L20.7493 4.6786C20.2423 4.4997 19.7267 4.34623 19.2043 4.21876V2.06677C19.2043 1.81282 18.9984 1.60693 18.7445 1.60693C15.4872 1.64013 12.4366 3.20808 10.5136 5.83732C8.60911 3.20583 5.56774 1.63564 2.31951 1.60693C2.06555 1.60693 1.85967 1.81282 1.85967 2.06677V4.1544C1.33374 4.28342 0.81497 4.43999 0.305468 4.62342L0.213517 4.6786H0.149113L0.0939338 4.75219L0.0479368 4.82577C0.045997 4.85026 0.045997 4.87487 0.0479368 4.89936C0.0284948 4.93104 0.0130619 4.96501 0.00193989 5.00053V17.7285C-0.00064663 17.756 -0.00064663 17.7837 0.00193989 17.8112C0.00939769 17.8334 0.0186229 17.8549 0.0295294 17.8756C0.0441002 17.9083 0.0626369 17.9393 0.0847086 17.9675V18.0227L0.158295 18.0779L0.231882 18.1239H0.296243H0.406601H0.480188H0.562956C3.80848 17.0326 7.37465 17.483 10.2469 19.347L10.3297 19.393H10.4676H10.6056H10.6883C13.5611 17.5644 17.1052 17.1286 20.3355 18.2067H20.4183H20.4918H20.6022H20.6666L20.7493 18.1515L20.8137 18.1055V18.0411C20.8893 18.0042 20.953 17.9468 20.9976 17.8756C20.9997 17.8511 20.9997 17.8265 20.9976 17.802C21.0002 17.7745 21.0002 17.7468 20.9976 17.7193ZM0.912438 17.1031V5.38674C1.20058 5.28863 1.50717 5.19668 1.83208 5.11085V14.4177C1.8316 14.6717 2.0371 14.8779 2.29105 14.8784C2.30054 14.8784 2.31002 14.8781 2.31946 14.8775L2.32864 14.8867C4.70738 14.886 6.98938 15.8285 8.67424 17.5077C6.19799 16.5411 3.47585 16.3992 0.912438 17.1031ZM10.0538 17.6089C8.25428 15.4191 5.61866 14.0846 2.78853 13.9303V2.53584C5.73307 2.73513 8.41775 4.29157 10.0538 6.74786V17.6089ZM10.9826 17.6457V6.74781C12.6342 4.30364 15.3151 2.75138 18.2571 2.5358H18.2663V13.9671C15.4317 14.1241 12.7914 15.4576 10.9826 17.6457ZM20.1056 17.1031C17.5446 16.4051 14.8273 16.547 12.3529 17.5078C14.0448 15.8267 16.3319 14.8814 18.7169 14.8776C18.9709 14.8776 19.1768 14.6717 19.1768 14.4178V5.11085C19.4833 5.19056 19.7929 5.28251 20.1056 5.38674V17.1031H20.1056Z" fill="#373737"/>
</g>
<defs>
<clipPath id="clip0_303_1623">
<rect width="21" height="21" fill="white"/>
</clipPath>
</defs>
</svg>
