<svg width="100" height="99" viewBox="0 0 100 99" fill="none" xmlns="http://www.w3.org/2000/svg">
<path d="M75.8491 44.7466C74.5365 38.2454 70.825 32.4765 65.4527 28.5872C60.0804 24.6978 53.441 22.9731 46.855 23.756C40.269 24.5389 34.219 27.772 29.9082 32.8124C25.5974 37.8528 23.3417 44.3311 23.5898 50.9588C23.8378 57.5865 26.5714 63.8781 31.2469 68.5821C35.9224 73.2862 42.1972 76.058 48.8233 76.3464C55.4494 76.6348 61.9413 74.4186 67.0078 70.1386C72.0743 65.8586 75.3443 59.8284 76.1673 53.2473L72.8943 52.838C72.1742 58.5968 69.3128 63.8737 64.8793 67.6189C60.4458 71.3642 54.765 73.3035 48.9667 73.0512C43.1685 72.7988 37.6777 70.3732 33.5863 66.2569C29.495 62.1406 27.1029 56.6351 26.8859 50.8354C26.6688 45.0358 28.6427 39.3669 32.4149 34.9562C36.1871 30.5456 41.4812 27.7164 47.2444 27.0313C53.0075 26.3462 58.8174 27.8555 63.5185 31.2589C68.2195 34.6623 71.4673 39.7105 72.6159 45.3994L75.8491 44.7466Z" fill="white"/>
<path fill-rule="evenodd" clip-rule="evenodd" d="M59.8644 10.992C59.8644 11.8354 59.7609 12.6547 59.5659 13.4378C72.4167 17.1102 82.4806 27.3869 85.8515 40.3622C86.9929 39.8716 88.2505 39.5999 89.5716 39.5999C89.8117 39.5999 90.0497 39.6089 90.2853 39.6265C86.5212 24.5424 74.6841 12.6539 59.6292 8.81641C59.7832 9.51708 59.8644 10.2451 59.8644 10.992ZM90.7027 58.3899C87.4647 74.3983 75.2147 87.1386 59.4761 91.0876C59.729 90.2041 59.8644 89.271 59.8644 88.3063C59.8644 87.6524 59.8022 87.013 59.6833 86.3937C73.0178 82.5363 83.3307 71.562 86.241 57.8519C87.2766 58.243 88.3991 58.457 89.5716 58.457C89.9544 58.457 90.3318 58.4342 90.7027 58.3899ZM7.26221 56.9264C10.1109 74.1023 23.2764 87.7932 40.1775 91.4177C39.8601 90.4377 39.6885 89.392 39.6885 88.3063C39.6885 87.7716 39.7301 87.2467 39.8102 86.7345C25.7129 83.1806 14.7522 71.7391 11.8957 57.3777C11.4012 57.4673 10.8919 57.5142 10.3716 57.5142C9.27397 57.5142 8.22505 57.3058 7.26221 56.9264ZM7.6316 40.9948C11.1051 24.7947 23.8273 12.0263 40.0024 8.48547C39.7975 9.28689 39.6885 10.1267 39.6885 10.992C39.6885 11.717 39.765 12.4241 39.9103 13.1057C26.3359 16.4883 15.6528 27.1796 12.282 40.7587C11.6679 40.6174 11.0285 40.5427 10.3716 40.5427C9.41279 40.5427 8.49116 40.7018 7.6316 40.9948Z" fill="white"/>
<path d="M60.343 10.3714C60.343 16.0994 55.6995 20.7429 49.9715 20.7429C44.2435 20.7429 39.6001 16.0994 39.6001 10.3714C39.6001 4.64345 44.2435 0 49.9715 0C55.6995 0 60.343 4.64345 60.343 10.3714ZM42.9482 10.3714C42.9482 14.2503 46.0927 17.3947 49.9715 17.3947C53.8504 17.3947 56.9948 14.2503 56.9948 10.3714C56.9948 6.49257 53.8504 3.34814 49.9715 3.34814C46.0927 3.34814 42.9482 6.49257 42.9482 10.3714Z" fill="white"/>
<path d="M47.1431 19.8002V24.5145" stroke="white" stroke-width="3"/>
<path d="M52.8003 19.8002V24.5145" stroke="white" stroke-width="3"/>
<path d="M10.3714 38.6572C16.0994 38.6572 20.7429 43.3006 20.7429 49.0286C20.7429 54.7566 16.0994 59.4 10.3714 59.4C4.64345 59.4 -2.02972e-07 54.7566 -4.5335e-07 49.0286C-7.03728e-07 43.3006 4.64345 38.6572 10.3714 38.6572ZM10.3714 56.0519C14.2503 56.0519 17.3947 52.9075 17.3947 49.0286C17.3947 45.1497 14.2503 42.0053 10.3714 42.0053C6.49257 42.0053 3.34814 45.1497 3.34814 49.0286C3.34814 52.9075 6.49257 56.0519 10.3714 56.0519Z" fill="white"/>
<path d="M49.9715 37.7142C56.7409 37.7142 62.2286 43.2019 62.2286 49.9714C62.2286 56.7408 56.7409 62.2285 49.9715 62.2285C43.2021 62.2285 37.7144 56.7408 37.7144 49.9714C37.7144 43.2019 43.2021 37.7142 49.9715 37.7142ZM49.9715 58.2716C54.5556 58.2716 58.2718 54.5555 58.2718 49.9714C58.2718 45.3873 54.5556 41.6711 49.9715 41.6711C45.3874 41.6711 41.6712 45.3873 41.6712 49.9714C41.6712 54.5555 45.3874 58.2716 49.9715 58.2716Z" fill="white"/>
<path d="M19.7998 51.8573L24.5141 51.8573" stroke="white" stroke-width="3"/>
<path d="M19.7998 46.2002L24.5141 46.2002" stroke="white" stroke-width="3"/>
<path d="M39.5999 88.6286C39.5999 82.9006 44.2434 78.2571 49.9713 78.2571C55.6993 78.2571 60.3428 82.9006 60.3428 88.6286C60.3428 94.3566 55.6993 99 49.9713 99C44.2434 99 39.5999 94.3566 39.5999 88.6286ZM56.9946 88.6286C56.9946 84.7497 53.8502 81.6053 49.9713 81.6053C46.0925 81.6053 42.9481 84.7497 42.9481 88.6286C42.9481 92.5074 46.0925 95.6519 49.9713 95.6519C53.8502 95.6519 56.9946 92.5074 56.9946 88.6286Z" fill="white"/>
<path d="M52.7998 79.1998L52.7998 74.4855" stroke="white" stroke-width="3"/>
<path d="M47.1426 79.1998L47.1426 74.4855" stroke="white" stroke-width="3"/>
<path d="M89.5714 59.4C83.8435 59.4 79.2 54.7565 79.2 49.0285C79.2 43.3006 83.8435 38.6571 89.5714 38.6571C95.2994 38.6571 99.9429 43.3006 99.9429 49.0285C99.9429 54.7565 95.2994 59.4 89.5714 59.4ZM89.5714 42.0052C85.6926 42.0052 82.5482 45.1497 82.5482 49.0285C82.5482 52.9074 85.6926 56.0518 89.5714 56.0518C93.4503 56.0518 96.5947 52.9074 96.5947 49.0285C96.5947 45.1497 93.4503 42.0052 89.5714 42.0052Z" fill="white"/>
<path d="M80.1431 46.1997L59.4002 46.1997" stroke="white" stroke-width="3"/>
<path d="M80.1431 51.8568L59.4002 51.8568" stroke="white" stroke-width="3"/>
</svg>
