<svg width="93" height="93" viewBox="0 0 93 93" fill="none" xmlns="http://www.w3.org/2000/svg">
<path d="M91.45 15.5H54.25C53.394 15.5 52.7 16.194 52.7 17.05V31C52.7006 31.856 53.3952 32.5494 54.2512 32.5488C54.4172 32.5486 54.5823 32.5219 54.7398 32.4694L56.6882 31.8199C58.8035 31.1275 61.0795 32.2811 61.7718 34.3964C62.464 36.5118 61.3106 38.7878 59.1953 39.4801C58.3807 39.7467 57.5025 39.7467 56.688 39.4801L54.7396 38.8306C53.9274 38.5601 53.0497 38.9992 52.7792 39.8114C52.7267 39.9689 52.7 40.134 52.6998 40.3V52.7H40.2998C39.4438 52.7006 38.7504 53.3952 38.751 54.2512C38.7512 54.4172 38.7779 54.5823 38.8304 54.7398L39.4799 56.6882C40.1723 58.8035 39.0187 61.0795 36.9034 61.7718C34.788 62.4642 32.512 61.3106 31.8198 59.1953C31.5532 58.3807 31.5532 57.5025 31.8198 56.688L32.4692 54.7396C32.7397 53.9274 32.3006 53.0497 31.4884 52.7792C31.3309 52.7267 31.1658 52.7 30.9998 52.6998H17.05C16.194 52.6998 15.5 53.3938 15.5 54.2498V91.4498C15.5 92.3058 16.194 92.9998 17.05 92.9998H91.45C92.306 92.9998 93 92.3058 93 91.4498V17.05C93 16.194 92.306 15.5 91.45 15.5ZM52.7794 77.0114C52.7269 77.1689 52.7002 77.334 52.7 77.5V89.9H18.6V55.8H28.8502C27.6658 59.5555 29.7501 63.5601 33.5056 64.7443C37.261 65.9287 41.2656 63.8443 42.4498 60.0888C42.89 58.6931 42.89 57.1956 42.4498 55.7998H52.7V68.1998C52.7006 69.0558 53.3952 69.7492 54.2512 69.7486C54.4172 69.7485 54.5823 69.7217 54.7398 69.6692L56.6882 69.0198C58.8035 68.3275 61.0795 69.4809 61.7718 71.5962C62.464 73.7116 61.3106 75.9876 59.1953 76.6799C58.3807 76.9465 57.5025 76.9465 56.688 76.6799L54.7396 76.0304C53.9276 75.7601 53.0499 76.1992 52.7794 77.0114ZM89.9 89.9H55.8V79.6498C59.5555 80.8342 63.5601 78.7499 64.7443 74.9944C65.9287 71.239 63.8443 67.2343 60.0888 66.0501C58.6931 65.6099 57.1956 65.6099 55.7998 66.0501V55.8H68.1998C69.0558 55.7994 69.7492 55.1048 69.7486 54.2488C69.7485 54.0828 69.7217 53.9177 69.6692 53.7602L69.0198 51.8118C68.3275 49.6965 69.4809 47.4205 71.5962 46.7282C73.7116 46.036 75.9876 47.1894 76.6799 49.3047C76.9465 50.1192 76.9465 50.9975 76.6799 51.812L76.0304 53.7604C75.7599 54.5726 76.199 55.4503 77.0112 55.7208C77.1687 55.7733 77.3338 55.8 77.4998 55.8002H89.8998V89.9H89.9ZM89.9 52.7H79.6498C80.8342 48.9445 78.7499 44.9399 74.9944 43.7557C71.239 42.5713 67.2343 44.6557 66.0501 48.4111C65.6099 49.8069 65.6099 51.3044 66.0501 52.7002H55.8V42.45C57.9528 43.1477 60.3095 42.7713 62.138 41.4379C65.3437 39.1513 66.0889 34.6987 63.8023 31.4929C61.9965 28.9614 58.7584 27.8921 55.8 28.8503V18.6H89.9V52.7Z" fill="white"/>
<path d="M44.589 13.3501C43.1933 12.9099 41.6958 12.9099 40.3 13.3501V1.55C40.3 0.694012 39.606 0 38.75 0H1.55C0.694012 0 0 0.694012 0 1.55V38.75C0 39.606 0.694012 40.3 1.55 40.3H13.3502C12.1658 44.0555 14.2501 48.0601 18.0056 49.2443C21.761 50.4285 25.7656 48.3443 26.9499 44.5888C27.39 43.1931 27.39 41.6956 26.9499 40.2998H38.75C39.606 40.2998 40.3 39.6058 40.3 38.7498V26.9497C44.0555 28.134 48.0601 26.0497 49.2443 22.2942C50.4287 18.539 48.3445 14.5345 44.589 13.3501ZM43.6955 23.98C42.8809 24.2466 42.0027 24.2466 41.1882 23.98L39.2398 23.3306C38.4276 23.0601 37.5499 23.4992 37.2794 24.3114C37.2269 24.4689 37.2002 24.634 37.2 24.8V37.2H24.8C23.944 37.2006 23.2506 37.8952 23.2512 38.7512C23.2514 38.9172 23.2781 39.0823 23.3306 39.2398L23.9801 41.1881C24.6725 43.3035 23.5189 45.5795 21.4036 46.2718C19.2882 46.964 17.0122 45.8106 16.32 43.6953C16.0534 42.8807 16.0534 42.0025 16.32 41.188L16.9694 39.2396C17.2399 38.4274 16.8008 37.5497 15.9886 37.2792C15.8311 37.2267 15.666 37.2 15.5 37.1998H3.1V3.1H37.2V15.5C37.2006 16.356 37.8952 17.0494 38.7512 17.0488C38.9172 17.0486 39.0823 17.0219 39.2398 16.9694L41.1882 16.32C43.3035 15.6277 45.5795 16.7811 46.2718 18.8964C46.9642 21.0116 45.8106 23.2878 43.6955 23.98Z" fill="white"/>
</svg>
