<svg width="23" height="23" viewBox="0 0 23 23" fill="none" xmlns="http://www.w3.org/2000/svg">
<g clip-path="url(#clip0_303_4100)">
<path d="M11.6229 13.9803C11.4436 13.8 11.152 13.8 10.9726 13.9803C10.7924 14.1596 10.7924 14.4503 10.9726 14.6306L11.5705 15.2284C12.0883 15.7471 12.0883 16.5896 11.5705 17.1073L7.25703 21.4208C6.52125 22.1538 5.39644 22.2909 4.52271 21.751C3.95341 21.3969 3.351 20.8994 2.72649 20.2684C2.10203 19.6522 1.60443 19.0489 1.25035 18.4777C0.709578 17.6022 0.844749 16.4783 1.57959 15.7434L5.89306 11.43C6.39614 10.926 7.26894 10.9278 7.77202 11.43L8.37901 12.037C8.55834 12.2172 8.84988 12.2172 9.02926 12.037C9.20859 11.8576 9.20859 11.567 9.02926 11.3867L8.42222 10.7797C7.57333 9.93084 6.0926 9.93084 5.24277 10.7797L0.929292 15.0932C-0.109084 16.1306 -0.298521 17.7208 0.468525 18.9625C0.861235 19.5952 1.4039 20.2556 2.0762 20.9196C2.74666 21.5975 3.40702 22.1401 4.03885 22.5337C4.54652 22.8464 5.11397 23 5.67869 23C6.4899 23 7.29463 22.6836 7.90715 22.0711L12.2206 17.7577C13.0971 16.8812 13.0971 15.4547 12.2206 14.5782L11.6229 13.9803Z" fill="#FFF500"/>
<path d="M7.03635 15.964C7.12647 16.0541 7.24421 16.0983 7.36195 16.0983C7.47875 16.0983 7.59649 16.0541 7.6866 15.964L15.964 7.6866C16.1433 7.50727 16.1433 7.21573 15.964 7.03635C15.7847 6.85702 15.4931 6.85702 15.3138 7.03635L7.03635 15.3138C6.85702 15.4931 6.85702 15.7847 7.03635 15.964Z" fill="#FFF500"/>
<path d="M22.5315 4.0382C22.1388 3.40542 21.5962 2.74506 20.9239 2.08102C20.2534 1.40319 19.593 0.860578 18.9612 0.466925C17.7223 -0.297337 16.1312 -0.109741 15.0929 0.929534L10.7794 5.24296C9.90295 6.11944 9.90295 7.54595 10.7794 8.42242L11.3865 9.02941C11.5658 9.20874 11.8573 9.20874 12.0367 9.02941C12.216 8.85008 12.216 8.55854 12.0367 8.37916L11.4297 7.77213C10.9119 7.25341 10.9119 6.41094 11.4297 5.89317L15.7432 1.57974C16.478 0.845799 17.6028 0.708786 18.4775 1.24956C19.0468 1.60364 19.6492 2.10119 20.2737 2.73213C20.8982 3.34833 21.3958 3.95073 21.7498 4.52282C22.2906 5.3984 22.1554 6.52226 21.4206 7.25714L17.1071 11.5706C16.604 12.0737 15.7313 12.0737 15.2282 11.5706L14.6303 10.9728C14.451 10.7935 14.1595 10.7935 13.9792 10.9728C13.7999 11.1531 13.7999 11.4446 13.9801 11.623L14.5779 12.2209C15.0028 12.6458 15.5675 12.8794 16.1681 12.8794C16.7678 12.8794 17.3325 12.6458 17.7574 12.2209L22.0709 7.90739C23.1091 6.87 23.2986 5.2798 22.5315 4.0382Z" fill="#FFF500"/>
</g>
<defs>
<clipPath id="clip0_303_4100">
<rect width="23" height="23" fill="white"/>
</clipPath>
</defs>
</svg>
