<svg width="392" height="49" viewBox="0 0 392 49" fill="none" xmlns="http://www.w3.org/2000/svg">
<g clip-path="url(#clip0_267_12065)">
<path d="M48.6161 25.452C48.6251 25.1775 48.6368 24.9034 48.6368 24.6268C48.6368 23.6758 48.5769 22.7392 48.4715 21.8167C45.6509 22.038 42.4784 22.3184 39.0923 22.6718C39.8027 20.7078 40.5364 18.775 41.2777 16.8941C43.1604 16.1761 44.9787 15.5612 46.685 15.0353C46.2991 14.1304 45.857 13.2558 45.3694 12.4114C44.4853 12.7632 43.5694 13.14 42.6272 13.5432C42.9718 12.7051 43.3161 11.8814 43.6584 11.0732C43.8957 10.985 44.1301 10.898 44.364 10.8111C43.5013 9.55286 42.5258 8.37952 41.4491 7.30791C39.372 8.57925 37.1519 9.88414 34.8431 11.1576C35.2447 8.32732 35.5609 5.6222 35.8104 3.1224C35.2333 2.81216 34.6416 2.52562 34.0377 2.26224C33.7368 5.32421 33.3368 8.70787 32.8037 12.2598C30.2106 13.6361 27.5395 14.95 24.8704 16.1093C24.6787 10.755 24.6127 5.64591 24.6082 1.25108L26.2382 0.329936C25.6287 0.283599 25.015 0.252441 24.3939 0.252441C23.7395 0.252441 23.0934 0.286262 22.4519 0.337126L5.41637 9.96563C5.3422 9.89479 5.26751 9.82475 5.19335 9.75392C4.27665 10.9486 3.46908 12.2311 2.78229 13.5868L5.12634 12.262C7.949 14.9964 10.6901 17.7936 13.1965 20.5656C9.72916 21.8444 6.51476 23.0239 3.64045 24.0752L0.248589 22.5006C0.191908 23.1615 0.157475 23.8292 0.154297 24.5043L1.17217 24.9767C0.831821 25.1008 0.498091 25.2225 0.169129 25.3423C0.186875 25.9599 0.221308 26.5732 0.283816 27.1785C1.27971 26.8086 2.32407 26.4208 3.41266 26.0169L8.03853 28.1641C5.49159 28.8794 3.07549 29.6234 0.830762 30.3544C1.12635 31.5888 1.51305 32.7869 1.98769 33.94C2.69594 34.3226 3.41081 34.7112 4.13363 35.1098L2.85274 35.8046C3.13668 36.3564 3.43783 36.8975 3.76149 37.4237L6.05655 36.1788C7.14064 36.787 8.23373 37.4102 9.32895 38.0461C8.38338 39.1204 7.48311 40.1784 6.63077 41.2074C7.03628 41.6463 7.45768 42.07 7.89418 42.4779C8.84186 41.3366 9.84623 40.1622 10.907 38.9696C12.1394 39.6977 13.3711 40.4404 14.5923 41.1954C16.3513 42.2827 18.0883 43.3922 19.7938 44.5064L15.8414 47.4363C16.5481 47.7042 17.2707 47.9385 18.0072 48.1404L21.4433 45.5934C22.3791 46.2145 23.3067 46.8352 24.2154 47.4528C24.0772 47.9068 23.9408 48.3518 23.8062 48.7886L23.5776 48.9811C23.8494 48.9899 24.1203 49.0016 24.3942 49.0016C25.9852 49.0016 27.5392 48.8429 29.0447 48.5489C28.6696 48.2858 28.2959 48.0229 27.9132 47.7569L30.2758 45.7687C30.0517 46.6784 29.8396 47.5612 29.6353 48.424C30.7642 48.1739 31.8642 47.8466 32.9281 47.444C33.1403 45.9894 33.3813 44.4782 33.6578 42.9227L35.8536 41.0753L40.2056 43.0955C40.7104 42.6582 41.1988 42.2028 41.666 41.7259L37.4218 39.7558L47.7847 31.0362C48.0432 30.0807 48.2461 29.1028 48.3878 28.1047L35.5654 38.894L34.5377 38.4171C34.7517 37.4128 34.9801 36.399 35.2245 35.3788L48.6161 25.452ZM47.822 23.7312L35.9431 32.536C36.5006 30.446 37.1263 28.3468 37.83 26.2715C38.0175 25.7183 38.2077 25.1666 38.4 24.6164C41.7765 24.2542 44.9647 23.9631 47.822 23.7312ZM34.3303 14.5367C36.743 13.6409 39.0849 12.7711 41.3095 11.9453C40.9461 12.8175 40.5814 13.7053 40.2172 14.6078C38.129 15.561 35.954 16.6336 33.7646 17.8304C33.9667 16.7223 34.155 15.6233 34.3303 14.5367ZM33.2568 20.4833C35.1604 19.4889 37.072 18.6075 38.9445 17.8259C38.3028 19.4841 37.6695 21.1773 37.0547 22.891C35.6086 23.051 34.1325 23.2231 32.6347 23.41C32.8519 22.4324 33.0616 21.4559 33.2568 20.4833ZM27.8372 16.9479C29.3448 16.3878 30.8437 15.8315 32.3229 15.2821C32.1155 16.517 31.892 17.7657 31.6504 19.0232C29.4693 20.2937 27.2966 21.6868 25.2034 23.2092C25.104 21.4716 25.0142 19.7369 24.9438 18.0221C25.9098 17.6634 26.8752 17.3047 27.8372 16.9479ZM31.1218 21.6495C30.9806 22.3192 30.8333 22.9895 30.6818 23.6606C29.5032 23.8159 28.315 23.9799 27.1228 24.1533C28.4318 23.2582 29.7691 22.422 31.1218 21.6495ZM24.1307 33.5866L23.6369 33.3573C22.9751 31.8804 22.1995 30.3001 21.2974 28.6802C22.0435 28.0392 22.8002 27.4072 23.5715 26.791C23.7302 29.078 23.9204 31.3539 24.1307 33.5866ZM23.4312 24.5439C23.3377 24.6164 23.245 24.6901 23.1522 24.7634C23.0622 24.7783 22.9719 24.7924 22.8818 24.807C21.6989 25.0009 20.5168 25.215 19.3406 25.4459C18.4122 24.0252 17.3901 22.6108 16.2576 21.2471C18.5121 20.4098 20.8135 19.5553 23.1242 18.6975C23.2065 20.6314 23.312 22.5874 23.4312 24.5439ZM21.1348 32.1957L18.649 31.0418C19.0675 30.6546 19.4908 30.2703 19.9177 29.8881C20.3532 30.6689 20.7568 31.4396 21.1348 32.1957ZM6.81035 11.3105L22.7679 2.291C22.7812 6.65254 22.8561 11.6567 23.0511 16.8752C22.3134 17.1758 21.5776 17.4634 20.8453 17.7353C18.8556 18.4738 16.9322 19.1859 15.068 19.8745C12.5203 17.02 9.71168 14.1328 6.81035 11.3105ZM5.86319 25.1069C8.54204 24.1123 11.4238 23.042 14.4101 21.9334C15.5037 23.1972 16.5007 24.5122 17.4113 25.8411C15.1727 26.3167 12.9653 26.8472 10.8223 27.4088L5.86319 25.1069ZM17.9371 27.6208L14.867 29.2865L13.4701 28.6381C14.9391 28.2783 16.4313 27.9367 17.9371 27.6208ZM2.07616 31.8697C4.7256 31.0215 7.6068 30.1635 10.6231 29.3638L12.8334 30.3898L6.0772 34.055C4.72163 33.3006 3.38406 32.5711 2.07616 31.8697ZM10.5945 36.6283C9.72386 36.1205 8.85458 35.6206 7.98953 35.1298L14.9314 31.3635L15.4288 31.5943C13.7262 33.2659 12.1071 34.9586 10.5945 36.6283ZM21.3731 43.3354C19.3981 42.0345 17.3808 40.7374 15.3316 39.4706C14.2859 38.824 13.2328 38.1872 12.1781 37.5606C13.7482 35.8475 15.428 34.1157 17.1949 32.4143L22.3685 34.8161C23.441 37.24 24.1987 39.3619 24.6882 40.878L21.3731 43.3354ZM24.774 45.6044C24.1958 45.2124 23.6073 44.819 23.0185 44.4254L25.1387 42.854C25.183 43.2153 25.2269 43.5807 25.2712 43.9365C25.1038 44.5019 24.938 45.0584 24.774 45.6044ZM25.3911 26.2925C27.0105 26.0443 28.627 25.8134 30.2286 25.5988C29.4409 28.8714 28.5965 32.1283 27.7413 35.2624L26.0756 34.4893C25.8133 31.8093 25.5795 29.057 25.3911 26.2925ZM26.2935 36.6379L27.2412 37.0775C27.0248 37.8565 26.8082 38.6261 26.5923 39.3853C26.4903 38.482 26.3905 37.5657 26.2935 36.6379ZM31.05 42.6926L27.3705 45.7886C27.2971 45.2235 27.2235 44.6497 27.1504 44.067C27.4799 42.9512 27.8152 41.7978 28.1529 40.6197L30.7401 38.702L31.955 39.266C31.6404 40.4282 31.3387 41.5717 31.05 42.6926ZM32.4546 37.4504L32.4387 37.4432L32.4615 37.4264C32.4591 37.4341 32.457 37.4424 32.4546 37.4504ZM33.2971 34.4973L30.5226 36.5537L29.4354 36.0488C30.373 32.6297 31.3021 29.0605 32.1606 25.4784C32.1714 25.4331 32.181 25.3876 32.1916 25.3423C33.6028 25.1628 34.9973 24.9961 36.3669 24.8406C36.2286 25.2393 36.0909 25.6387 35.9553 26.039C35.0012 28.853 34.1145 31.6993 33.2971 34.4973Z" fill="white"/>
<path d="M77.0364 15.0206H80.486L88.6722 27.0576V15.0206H92.1766V33.6619H89.3018L80.5406 20.8793V33.6619H77.0361V15.0206H77.0364Z" fill="white"/>
<path d="M96.9404 15.0206H109.206V18.3228H100.527V22.2907H107.262V25.5929H100.527V30.3595H109.48V33.6617H96.9404V15.0206Z" fill="white"/>
<path d="M117.584 24.1016L111.204 15.0206H115.092L119.5 21.3587L123.908 15.0206H127.796L121.417 24.1016L128.125 33.6619H124.237L119.5 26.8712L114.764 33.6619H110.876L117.584 24.1016Z" fill="white"/>
<path d="M134.448 18.3228H129.027V15.0206H143.374V18.3228H137.953V33.6619H134.449V18.3228H134.448Z" fill="white"/>
<path d="M149.521 32.823C148.088 32.0156 146.966 30.879 146.154 29.4143C145.342 27.9497 144.936 26.2586 144.936 24.3412C144.936 22.4239 145.342 20.7328 146.154 19.2681C146.966 17.8035 148.088 16.6674 149.521 15.8595C150.954 15.0517 152.574 14.6478 154.381 14.6478C156.188 14.6478 157.808 15.0517 159.241 15.8595C160.674 16.6677 161.796 17.8035 162.608 19.2681C163.42 20.7328 163.827 22.4239 163.827 24.3412C163.827 26.2586 163.42 27.9497 162.608 29.4143C161.796 30.879 160.674 32.0156 159.241 32.823C157.808 33.6313 156.188 34.035 154.381 34.035C152.574 34.035 150.954 33.6313 149.521 32.823ZM158.666 28.9752C159.66 27.8035 160.158 26.2589 160.158 24.3415C160.158 22.4241 159.66 20.8796 158.666 19.7078C157.671 18.5361 156.243 17.9502 154.381 17.9502C152.519 17.9502 151.091 18.5361 150.096 19.7078C149.101 20.8796 148.604 22.4241 148.604 24.3415C148.604 26.2589 149.101 27.8035 150.096 28.9752C151.091 30.1467 152.519 30.7328 154.381 30.7328C156.243 30.7325 157.671 30.1467 158.666 28.9752Z" fill="white"/>
<path d="M167.44 15.0206H170.889L179.075 27.0576V15.0206H182.58V33.6619H179.705L170.944 20.8793V33.6619H167.439V15.0206H167.44Z" fill="white"/>
<path d="M187.344 15.0206H199.609V18.3228H190.93V22.2907H197.666V25.5929H190.93V30.3595H199.883V33.6617H187.344V15.0206Z" fill="white"/>
<path d="M213.696 32.8367C212.208 32.0377 211.054 30.906 210.233 29.4413C209.411 27.9766 209.001 26.2768 209.001 24.3415C209.001 22.4242 209.425 20.7331 210.274 19.2685C211.123 17.8038 212.3 16.6677 213.806 15.8598C215.312 15.0521 217.023 14.6481 218.939 14.6481C220.783 14.6481 222.435 15.0121 223.895 15.7399L223.512 18.9888C222.727 18.6517 221.974 18.3896 221.253 18.2032C220.532 18.0168 219.752 17.9236 218.912 17.9236C216.959 17.9236 215.458 18.5095 214.408 19.6812C213.359 20.853 212.834 22.4066 212.834 24.3415C212.834 26.277 213.35 27.8301 214.381 29.0019C215.412 30.1736 216.895 30.7595 218.83 30.7595C219.688 30.7595 220.477 30.6711 221.199 30.4932C221.919 30.3161 222.691 30.0498 223.512 29.6943L223.895 32.9432C222.307 33.671 220.619 34.0353 218.83 34.0353C216.895 34.035 215.184 33.6356 213.696 32.8367Z" fill="white"/>
<path d="M230.561 32.823C229.128 32.0156 228.005 30.879 227.193 29.4143C226.381 27.9497 225.975 26.2586 225.975 24.3412C225.975 22.4239 226.38 20.7328 227.193 19.2681C228.005 17.8035 229.128 16.6674 230.561 15.8595C231.993 15.0517 233.613 14.6478 235.42 14.6478C237.228 14.6478 238.847 15.0517 240.28 15.8595C241.713 16.6677 242.835 17.8035 243.648 19.2681C244.46 20.7328 244.866 22.4239 244.866 24.3412C244.866 26.2586 244.46 27.9497 243.648 29.4143C242.836 30.879 241.713 32.0156 240.28 32.823C238.847 33.6313 237.228 34.035 235.42 34.035C233.613 34.035 231.993 33.6313 230.561 32.823ZM239.705 28.9752C240.7 27.8035 241.197 26.2589 241.197 24.3415C241.197 22.4241 240.7 20.8796 239.705 19.7078C238.71 18.5361 237.282 17.9502 235.42 17.9502C233.558 17.9502 232.13 18.5361 231.135 19.7078C230.14 20.8796 229.644 22.4241 229.644 24.3415C229.644 26.2589 230.14 27.8035 231.135 28.9752C232.13 30.1467 233.558 30.7328 235.42 30.7328C237.282 30.7328 238.71 30.1467 239.705 28.9752Z" fill="white"/>
<path d="M248.481 15.0206H251.93L260.117 27.0576V15.0206H263.621V33.6619H260.746L251.985 20.8793V33.6619H248.48V15.0206H248.481Z" fill="white"/>
<path d="M270.479 33.6087C269.247 33.325 268.284 33.0143 267.591 32.6766L268.002 29.0549C270.411 30.1912 272.528 30.7589 274.353 30.7589C275.32 30.7589 276.078 30.5771 276.626 30.213C277.173 29.8495 277.447 29.3121 277.447 28.6019C277.447 28.0693 277.297 27.6299 276.995 27.2837C276.694 26.9375 276.261 26.6448 275.695 26.4049C275.129 26.1652 274.225 25.8323 272.985 25.4062C271.816 25.0158 270.849 24.603 270.082 24.1679C269.316 23.733 268.709 23.1738 268.262 22.4902C267.814 21.8071 267.591 20.9683 267.591 19.9736C267.591 18.3758 268.193 17.0887 269.398 16.1122C270.603 15.1359 272.328 14.6475 274.572 14.6475C275.631 14.6475 276.685 14.7631 277.735 14.9937C278.784 15.2246 279.747 15.509 280.623 15.8459L280.267 19.3345C279.135 18.8551 278.099 18.4956 277.16 18.2559C276.219 18.0163 275.284 17.8964 274.353 17.8964C273.313 17.8964 272.519 18.0655 271.971 18.4024C271.424 18.7398 271.15 19.228 271.15 19.8671C271.15 20.3643 271.296 20.7725 271.588 21.0921C271.88 21.4117 272.277 21.678 272.779 21.891C273.281 22.104 274.024 22.3618 275.01 22.6633C277.218 23.3381 278.83 24.1146 279.842 24.9934C280.856 25.8723 281.362 27.0752 281.362 28.6019C281.362 30.0578 280.842 31.3272 279.801 32.41C278.761 33.4931 276.808 34.0347 273.942 34.0347C272.865 34.035 271.711 33.8925 270.479 33.6087Z" fill="white"/>
<path d="M286.59 31.8111C285.258 30.3291 284.592 28.2826 284.592 25.6728V15.0206H288.096V24.794C288.096 26.0901 288.215 27.1686 288.452 28.0293C288.689 28.8906 289.132 29.5606 289.78 30.0402C290.428 30.5195 291.345 30.7589 292.532 30.7589C293.718 30.7589 294.635 30.5195 295.283 30.0402C295.931 29.5606 296.374 28.8908 296.611 28.0293C296.848 27.1686 296.967 26.0901 296.967 24.794V15.0206H300.472V25.6728C300.472 28.2826 299.805 30.3289 298.473 31.8111C297.14 33.2936 295.16 34.035 292.532 34.035C289.903 34.035 287.923 33.2936 286.59 31.8111Z" fill="white"/>
<path d="M305.017 15.0206H308.521V30.6261H316.406V33.6619H305.017V15.0206Z" fill="white"/>
<path d="M321.308 18.3228H315.887V15.0206H330.233V18.3228H324.812V33.6619H321.308V18.3228Z" fill="white"/>
<path d="M333.299 15.0206H336.803V33.6619H333.299V15.0206Z" fill="white"/>
<path d="M341.567 15.0206H345.016L353.203 27.0576V15.0206H356.707V33.6619H353.832L345.071 20.8793V33.6619H341.566V15.0206H341.567Z" fill="white"/>
<path d="M364.797 32.8367C363.346 32.0377 362.237 30.9059 361.47 29.4413C360.704 27.9766 360.32 26.268 360.32 24.3149C360.32 22.3975 360.745 20.7065 361.594 19.2418C362.442 17.7771 363.624 16.6454 365.139 15.8464C366.654 15.0475 368.388 14.6481 370.341 14.6481C371.327 14.6481 372.285 14.7458 373.216 14.941C374.147 15.1365 374.95 15.4028 375.626 15.7399L375.242 18.9888C373.654 18.2789 372.02 17.9236 370.341 17.9236C368.297 17.9236 366.755 18.5055 365.714 19.6679C364.674 20.8309 364.154 22.3621 364.154 24.2617C364.154 26.232 364.664 27.808 365.687 28.9886C366.709 30.1696 368.187 30.7592 370.122 30.7592C370.907 30.7592 371.783 30.662 372.75 30.4663V27.1375H370.122V24.3147H376.255V32.6233C375.543 33.0321 374.635 33.3693 373.531 33.6356C372.426 33.9019 371.245 34.035 369.985 34.035C367.977 34.035 366.248 33.6356 364.797 32.8367Z" fill="white"/>
</g>
<defs>
<clipPath id="clip0_267_12065">
<rect width="392" height="49" fill="white"/>
</clipPath>
</defs>
</svg>
