<svg width="96" height="60" viewBox="0 0 96 60" fill="none" xmlns="http://www.w3.org/2000/svg">
<path d="M15.0625 14.3445L15.0626 14.3446L15.0679 14.336C16.0489 12.7534 17.2117 11.6799 18.5428 11.0609C19.9212 10.4199 21.4738 10.0925 23.2136 10.0925C25.1132 10.0925 26.8087 10.5751 28.3201 11.5334L29.0387 11.9891L29.4005 11.2189L32.6756 4.24723L32.9872 3.58387L32.3312 3.25704C29.6292 1.91087 26.5087 1.25 22.9903 1.25C19.6679 1.25 16.6305 1.887 13.8909 3.17408C11.1996 4.4123 8.89951 6.24328 6.99403 8.65507L6.99398 8.65503L6.98791 8.66293C5.13116 11.0783 3.70477 14.0871 2.69253 17.6677L2.69249 17.6677L2.69061 17.6746C1.72617 21.215 1.25 25.3137 1.25 29.9609C1.25 35.3062 1.87621 39.9142 3.14864 43.7685L3.14959 43.7714C4.41912 47.5663 6.2337 50.6875 8.61057 53.1073L9.36473 53.8751L9.82393 52.9018L13.9178 44.2243L14.0613 43.92L13.9295 43.6105C13.2663 42.0527 12.7589 40.1401 12.4181 37.86C12.0772 35.5792 11.8805 32.9469 11.831 29.9596C11.8806 26.1902 12.1755 23.0334 12.707 20.4788C13.29 17.9153 14.082 15.8798 15.0625 14.3445ZM37.124 6.56979L36.3751 5.86922L35.9344 6.79525L31.8406 15.3986L31.7678 15.5515V15.7209C31.7678 15.9511 31.8528 16.1344 31.9494 16.2678C32.641 17.8094 33.1829 19.6925 33.5649 21.9288C33.9533 24.2025 34.1745 26.8785 34.224 29.962C34.1744 33.7313 33.8547 36.9117 33.2745 39.5135L33.2744 39.5135L33.2722 39.5238C32.7383 42.087 31.9708 44.1196 30.9925 45.6514C30.0162 47.1802 28.8277 48.2637 27.433 48.9373C26.0557 49.5768 24.5047 49.9034 22.767 49.9034C20.5732 49.9034 18.8128 49.3251 17.431 48.2146L16.6912 47.6202L16.2838 48.4773L12.9343 55.5231L12.6205 56.1833L13.2724 56.514C16.1216 57.9593 19.3671 58.6718 22.9903 58.6718C26.357 58.6718 29.3942 58.0615 32.0868 56.8232C34.7793 55.5849 37.0804 53.7535 38.9865 51.3409C40.8975 48.9221 42.326 45.9087 43.2894 42.3236C44.3038 38.7331 44.805 34.6092 44.805 29.9609C44.805 24.5662 44.154 19.9082 42.8315 16.0035C41.5596 12.1021 39.6641 8.94582 37.124 6.56979ZM74.6473 58.301H75.3973V57.551V2.89V2.14H74.6473H65.5663H65.2565L65.037 2.35872L51.1179 16.2279L50.5847 16.7592L51.1179 17.2905L57.5192 23.6688L58.0485 24.1963L58.5779 23.6688L64.8163 17.4528V57.551V58.301H65.5663H74.6473ZM84.3025 56.8083L84.3088 56.8149L84.3153 56.8214C85.4998 58.0017 86.9563 58.5976 88.6408 58.5976C90.3252 58.5976 91.7818 58.0017 92.9663 56.8214C94.1509 55.641 94.75 54.1885 94.75 52.5076C94.75 50.8292 94.1521 49.3961 92.9597 48.2615C91.7764 47.0855 90.3222 46.4918 88.6408 46.4918C87.0014 46.4918 85.5742 47.0908 84.3963 48.2615C83.204 49.3961 82.606 50.8292 82.606 52.5076C82.606 54.177 83.1719 55.6255 84.3025 56.8083Z" stroke="white" stroke-opacity="0.2" stroke-width="1.5"/>
</svg>
