<svg width="114" height="62" viewBox="0 0 114 62" fill="none" xmlns="http://www.w3.org/2000/svg">
<path d="M15.4966 14.7877L15.4967 14.7877L15.502 14.7791C16.5196 13.134 17.7266 12.0166 19.1095 11.3721C20.5398 10.7056 22.1502 10.3654 23.9538 10.3654C25.9241 10.3654 27.6834 10.8671 29.2518 11.8638L29.9713 12.321L30.3332 11.5491L33.7225 4.31832L34.033 3.65583L33.3784 3.32899C30.5863 1.93485 27.3608 1.25 23.7227 1.25C20.2875 1.25 17.1478 1.91007 14.3163 3.24325C11.5348 4.52574 9.15772 6.42212 7.18832 8.9203L7.18827 8.92026L7.18221 8.92816C5.26328 11.4299 3.78854 14.547 2.74175 18.2579L2.74172 18.2579L2.73984 18.2648C1.7426 21.9338 1.25 26.182 1.25 31C1.25 36.5418 1.89783 41.3178 3.21342 45.3116L3.21436 45.3144C4.52706 49.247 6.40294 52.4802 8.85932 54.9865L9.6142 55.7567L10.0735 54.781L14.3102 45.781L14.4532 45.4772L14.3219 45.1683C13.6344 43.5498 13.1087 41.5635 12.7558 39.1971C12.4027 36.8298 12.1991 34.0982 12.1478 30.9987C12.1992 27.0878 12.5045 23.8114 13.0551 21.1592C13.659 18.4983 14.4796 16.3836 15.4966 14.7877ZM38.3323 6.76053L37.5826 6.05771L37.1418 6.98601L32.9051 15.9091L32.8326 16.0618V16.2308C32.8326 16.4632 32.9188 16.6485 33.0168 16.7835C33.7344 18.3856 34.2962 20.342 34.692 22.6645C35.0943 25.0246 35.3233 27.8018 35.3746 31.0011C35.3232 34.912 34.9922 38.2128 34.3911 40.914L34.3911 40.914L34.3889 40.9243C33.8359 43.585 33.0406 45.6968 32.0258 47.2892C31.0129 48.8787 29.7794 50.0061 28.3311 50.707C26.902 51.3721 25.2932 51.7115 23.4916 51.7115C21.2168 51.7115 19.3892 51.1104 17.9536 49.9543L17.2131 49.358L16.8056 50.217L13.3392 57.5247L13.0264 58.184L13.6769 58.5147C16.6215 60.0117 19.9763 60.75 23.7227 60.75C27.2039 60.75 30.3435 60.1176 33.1263 58.835C35.9089 57.5525 38.287 55.6556 40.257 53.1566C42.2319 50.6515 43.7087 47.5298 44.7049 43.8144C45.7539 40.0936 46.2724 35.8191 46.2724 31C46.2724 25.4069 45.5989 20.5791 44.2315 16.5331C42.9165 12.4905 40.9571 9.22118 38.3323 6.76053ZM91.6633 26.2876L91.6657 26.2817C92.5691 24.0527 93.0301 21.8801 93.0301 19.7692C93.0301 17.7714 92.6249 15.7103 91.8297 13.5903C91.0754 11.4416 89.8916 9.50985 88.2859 7.79844C86.6669 6.02136 84.6028 4.58181 82.1125 3.47028C79.6294 2.3388 76.6682 1.78846 73.2535 1.78846C71.9734 1.78846 70.5979 1.92117 69.1291 2.18244C67.6619 2.39232 66.1715 2.70614 64.6579 3.12309L64.6579 3.12306L64.6514 3.12494C63.1713 3.54721 61.7193 4.10102 60.2954 4.78561L60.2954 4.78553L60.2854 4.79053C58.9031 5.48074 57.7157 6.25928 56.7332 7.13141L56.3124 7.50489L56.5533 8.01335L59.2493 13.7057L59.6002 14.4465L60.307 14.0313C61.1724 13.523 61.9849 13.0666 62.7447 12.662C63.4445 12.2893 64.2493 12.0035 65.1655 11.8109L65.1838 11.807L65.2018 11.8023C66.1248 11.5597 67.2092 11.386 68.4603 11.2861L68.4734 11.285L68.4864 11.2835C69.783 11.1341 71.421 11.0577 73.4076 11.0577C74.3595 11.0577 75.3714 11.2003 76.4458 11.4929L76.4538 11.495C77.5329 11.7761 78.5179 12.2673 79.4138 12.9736C80.2941 13.6676 81.0232 14.5774 81.5955 15.7204L81.604 15.7375L81.6134 15.7541C82.1998 16.7901 82.5175 18.1401 82.5175 19.8462C82.5175 21.44 82.0483 23.1663 81.0634 25.0349L81.0598 25.0418L81.0563 25.0488C80.1061 26.9464 78.8503 28.9051 77.2828 30.9248L77.2812 30.9269C75.7586 32.9035 74.0565 34.8827 72.1739 36.8645C70.2841 38.8025 68.3951 40.6378 66.5069 42.3705C64.6125 44.1089 62.847 45.693 61.2104 47.1232C59.5676 48.5073 58.2799 49.6132 57.3494 50.4391L57.0973 50.6629V51V59.6154V60.3654H57.8473H93.1274H93.8774V59.6154V52.1538V51.4038H93.1274H70.8545C71.5534 50.7306 72.3434 49.9843 73.225 49.1647L73.2256 49.164C74.7753 47.7197 76.4005 46.1225 78.101 44.373C79.8574 42.6189 81.5872 40.7625 83.2904 38.8042C85.0541 36.8355 86.6636 34.8135 88.1184 32.7382L88.1233 32.7311C89.5869 30.5909 90.7683 28.4431 91.6633 26.2876ZM101.982 58.8253L101.989 58.8319L101.995 58.8384C103.216 60.0574 104.717 60.6731 106.454 60.6731C108.191 60.6731 109.692 60.0574 110.912 58.8384C112.133 57.6193 112.75 56.1201 112.75 54.3846C112.75 52.6516 112.134 51.1729 110.906 50.0014C109.686 48.7866 108.188 48.1731 106.454 48.1731C104.764 48.1731 103.293 48.7919 102.079 50.0014C100.85 51.1729 100.235 52.6517 100.235 54.3846C100.235 56.1086 100.817 57.6038 101.982 58.8253Z" stroke="white" stroke-opacity="0.2" stroke-width="1.5"/>
</svg>
