<svg width="117" height="65" viewBox="0 0 117 65" fill="none" xmlns="http://www.w3.org/2000/svg">
<path d="M78.7824 63.585C80.0235 63.4725 81.3648 63.2207 82.8043 62.8345C84.2694 62.4413 85.7537 61.8541 87.2567 61.0774L87.2567 61.0775L87.2656 61.0727C88.8571 60.223 90.2769 59.1187 91.5233 57.7637C92.7865 56.3903 93.8054 54.6898 94.5906 52.6791C95.4453 50.5755 95.8613 48.1311 95.8613 45.3634C95.8613 43.0687 95.4685 41.0195 94.6601 39.2335C93.8725 37.4404 92.8799 35.9087 91.6752 34.651C90.4837 33.4069 89.1684 32.4348 87.7286 31.7452C87.2034 31.4837 86.6798 31.2588 86.1578 31.0711C86.4746 30.9178 86.7957 30.7482 87.1211 30.5629L87.1326 30.5564L87.1438 30.5494C88.3432 29.8095 89.4264 28.8998 90.3928 27.8233C91.3693 26.7357 92.1688 25.4812 92.7939 24.0655L92.7939 24.0655L92.7981 24.0557C93.4365 22.552 93.7507 20.914 93.7507 19.1512C93.7507 16.2064 93.2215 13.6105 92.1356 11.3859C91.1152 9.18534 89.6919 7.36607 87.8647 5.94227C86.1003 4.52526 84.0314 3.51165 81.6708 2.89444C79.3285 2.22833 76.8534 1.89722 74.2486 1.89722C70.6046 1.89722 67.7532 2.113 65.725 2.56216L65.7206 2.56316C63.8177 2.99663 62.206 3.40477 60.8884 3.78777L60.1009 4.01666L60.399 4.7806L63.2402 12.0618L63.5048 12.7397L64.1904 12.4957C64.9284 12.233 66.0222 11.8871 67.4796 11.4567L67.4879 11.4543L67.496 11.4516C68.9079 10.9994 70.824 10.7593 73.2744 10.7593C75.7191 10.7593 77.553 11.0528 78.8279 11.5903L78.8393 11.5951L78.8508 11.5995C80.1671 12.1041 81.0929 12.7617 81.6902 13.5401L81.6984 13.5509L81.707 13.5613C82.3861 14.383 82.7833 15.2565 82.9236 16.1885C83.081 17.2347 83.1588 18.222 83.1588 19.1512C83.1588 21.525 82.8115 23.2401 82.1945 24.3753C81.5481 25.5645 80.7571 26.3559 79.8401 26.8128C78.8547 27.3038 77.7944 27.5752 76.6514 27.6247L76.65 27.6248C75.4706 27.6782 74.2914 27.7049 73.1121 27.7049H67.592H66.8326L66.842 28.4642L66.9232 35.0172L67.592 35.009V35.758H67.6731H68.4325H75.8721C78.957 35.758 81.1842 36.6985 82.6853 38.484C84.2359 40.3284 85.0259 42.6054 85.0259 45.3634C85.0259 48.2739 84.1607 50.6493 82.4611 52.5443C80.81 54.3324 78.2582 55.2924 74.6545 55.2924C72.1296 55.2924 70.1632 55.2122 68.7432 55.0558C67.3189 54.845 66.243 54.6129 65.4949 54.3667C64.7225 54.0575 64.1747 53.7654 63.8197 53.5001C63.3587 53.1555 62.8699 52.8404 62.3539 52.5547L61.5511 52.1102L61.2753 52.9855L59.0835 59.9431L58.9097 60.4949L59.3993 60.8032C60.5367 61.5191 62.4516 62.1888 65.0565 62.8378L65.0652 62.84L65.074 62.842C67.8035 63.4526 71.4649 63.75 76.0345 63.75C76.7184 63.75 77.6379 63.6936 78.7824 63.585ZM78.7824 63.585C78.7819 63.5851 78.7815 63.5851 78.781 63.5851L78.7134 62.8382L78.7842 63.5848C78.7836 63.5849 78.783 63.585 78.7824 63.585ZM16.1889 15.4288L16.1889 15.4289L16.1942 15.4203C17.2697 13.685 18.5471 12.5037 20.0131 11.822C21.5265 11.1181 23.2296 10.7593 25.1358 10.7593C27.2197 10.7593 29.0815 11.289 30.7413 12.3416L31.46 12.7974L31.8218 12.0271L35.3936 4.42229L35.7052 3.759L35.0493 3.43217C32.1134 1.96925 28.7209 1.25 24.8922 1.25C21.2776 1.25 17.9748 1.94314 14.9969 3.34249C12.0718 4.68849 9.57165 6.67887 7.49983 9.30168L7.49978 9.30164L7.4937 9.30954C5.4751 11.936 3.92282 15.2096 2.82066 19.109L2.82063 19.109L2.81874 19.1159C1.76888 22.9706 1.25 27.4352 1.25 32.5C1.25 38.3257 1.93242 43.3446 3.31724 47.5401L3.31818 47.5429C4.70012 51.6746 6.67431 55.0697 9.258 57.7006L10.0122 58.4686L10.4714 57.495L14.9362 48.0295L15.0797 47.7253L14.948 47.4158C14.2218 45.7099 13.6672 43.6176 13.2949 41.1265C12.9225 38.6347 12.7078 35.7599 12.6538 32.4987C12.7079 28.3836 13.0298 24.935 13.6107 22.1423C14.2478 19.3409 15.1139 17.1123 16.1889 15.4288ZM40.2602 7.03455L39.5112 6.3338L39.0706 7.26002L34.6058 16.6446L34.533 16.7975V16.9668C34.533 17.2035 34.6216 17.392 34.7222 17.5291C35.4809 19.2185 36.0742 21.2805 36.492 23.7271C36.9164 26.2118 37.1578 29.1347 37.2118 32.5011C37.1577 36.6161 36.8088 40.0906 36.1746 42.9349L36.1745 42.9349L36.1724 42.9452C35.589 45.7464 34.7495 47.9721 33.6768 49.6521C32.606 51.329 31.3007 52.5203 29.7665 53.2612C28.2544 53.9635 26.5528 54.3216 24.6487 54.3216C22.2436 54.3216 20.3079 53.6871 18.7866 52.4645L18.0469 51.8699L17.6394 52.7271L13.9864 60.4128L13.6727 61.0729L14.3245 61.4036C17.421 62.9747 20.9498 63.75 24.8922 63.75C28.5558 63.75 31.8582 63.0858 34.7847 61.7397C37.711 60.3937 40.2122 58.4029 42.2846 55.7792C44.362 53.1494 45.9163 49.8711 46.9651 45.9672C48.0695 42.058 48.6157 37.5658 48.6157 32.5C48.6157 26.6204 47.9062 21.5471 46.4668 17.2968C45.0826 13.0497 43.0207 9.61716 40.2602 7.03455ZM104.473 61.7383L104.479 61.7449L104.486 61.7514C105.765 63.026 107.336 63.6691 109.155 63.6691C110.975 63.6691 112.546 63.026 113.825 61.7514C115.104 60.4767 115.75 58.9097 115.75 57.0942C115.75 55.2811 115.105 53.7357 113.818 52.5113C112.54 51.2411 110.971 50.6001 109.155 50.6001C107.385 50.6001 105.846 51.2464 104.573 52.5114C103.287 53.7358 102.642 55.2811 102.642 57.0942C102.642 58.8982 103.252 60.4612 104.473 61.7383Z" stroke="white" stroke-opacity="0.2" stroke-width="1.5"/>
</svg>
