<svg width="98" height="92" viewBox="0 0 98 92" fill="none" xmlns="http://www.w3.org/2000/svg">
<path d="M23.9849 17.1145V41.0916C23.9849 46.0621 28.0143 50.0916 32.9849 50.0916H47.1853C49.4924 50.0916 51.7114 50.9776 53.384 52.5666L70.302 68.6387C71.576 69.8489 73.6795 68.9459 73.6795 67.1887V53.0916C73.6795 51.4347 75.0226 50.0916 76.6795 50.0916H86.8932C91.8638 50.0916 95.8932 46.0622 95.8932 41.0916V17.1145M23.9849 17.1145V11C23.9849 6.02944 28.0143 2 32.9849 2H86.8932C91.8638 2 95.8932 6.02944 95.8932 11V17.1145M23.9849 17.1145H95.8932" stroke="white" stroke-width="3.5"/>
<path d="M72.5 69.0001L49.5402 69.2816C47.1109 69.3114 44.7968 70.3221 43.1239 72.0839L27.6641 88.3661C26.4199 89.6764 24.2137 88.7959 24.2137 86.989V72.2442C24.2137 71.1397 23.3183 70.2442 22.2137 70.2442H11C6.02943 70.2442 1.99999 66.2148 1.99999 61.2443V37.2672V31.1527C1.99999 26.1821 6.02943 22.1527 11 22.1527H24.2137" stroke="white" stroke-width="3.5"/>
<path d="M23.9849 32.916H96.3512" stroke="white" stroke-width="3.5"/>
</svg>
