<svg width="107" height="100" viewBox="0 0 107 100" fill="none" xmlns="http://www.w3.org/2000/svg">
<path d="M52.175 6.60883V6.60883C48.5686 3.00243 42.6824 3.10387 39.211 6.84034L5.61239 43.0037C2.43649 46.422 2.39972 51.7007 5.52768 55.1629L38.9483 92.1553C42.5002 96.0867 48.6627 96.1145 52.2499 92.2154L53.5663 90.7845M53.5663 90.7845L43.5108 79.3577C40.5121 75.9501 40.5203 70.8428 43.5299 67.4448L54.5793 54.9697C57.5803 51.5815 57.5982 46.4917 54.6211 43.0826L43.4679 30.3103C40.4908 26.9011 40.5087 21.8113 43.5097 18.4232L53.1984 7.48424C56.7414 3.48411 62.969 3.43392 66.576 7.37643L99.0999 42.9258C102.263 46.383 102.244 51.6886 99.0565 55.1232L66.0201 90.7205C62.6663 94.3343 56.9571 94.3636 53.5663 90.7845V90.7845Z" stroke="white" stroke-width="4"/>
<path d="M101 46L86.5494 29.6891C83.8755 26.671 79.2113 26.5301 76.3601 29.3813L62.1463 43.5952C59.449 46.2924 59.4078 50.6526 62.0536 53.4003L82.1915 74.3137" stroke="white" stroke-width="4"/>
</svg>
