<svg width="68" height="88" viewBox="0 0 68 88" fill="none" xmlns="http://www.w3.org/2000/svg">
<path d="M2 51.117C2 48.3556 4.23857 46.117 7 46.117H23.6306C26.3921 46.117 28.6306 48.3556 28.6306 51.117V84.9999H4C2.89543 84.9999 2 84.1045 2 82.9999V51.117Z" stroke="white" stroke-width="4"/>
<path d="M17.2529 85.127H47.2295C47.7818 85.127 48.2295 84.6793 48.2295 84.127V29.5659C48.2295 26.2522 45.5432 23.5659 42.2295 23.5659H23.2529C19.9392 23.5659 17.2529 26.2522 17.2529 29.5659V44.5437" stroke="white" stroke-width="4"/>
<path d="M35.2896 85.1271H58.0898C61.9558 85.1271 65.0898 81.9931 65.0898 78.1271V9C65.0898 5.13401 61.9558 2 58.0898 2H42.2896C38.4236 2 35.2896 5.134 35.2896 8.99999V24.1542" stroke="white" stroke-width="4"/>
</svg>
