<svg width="77" height="73" viewBox="0 0 77 73" fill="none" xmlns="http://www.w3.org/2000/svg">
<path d="M24.5 17.5122C24.9 9.11221 19.3333 4.34554 16.5 3.01221H36.5C41.3333 3.67887 50.9 7.91221 50.5 19.5122C50.1 31.1122 50 52.0122 50 61.0122C50 62.8455 51.1 67.4122 55.5 71.0122H38.5C27.3 69.8122 24.5 59.1789 24.5 54.0122C24.3333 45.3455 24.1 25.9122 24.5 17.5122Z" stroke="white" stroke-width="3"/>
<path d="M24 55.5122C17.6667 57.3455 4.6 57.5122 3 43.5122V17.0122C3 12.1788 5.7 2.61216 16.5 3.01216" stroke="white" stroke-width="3"/>
<path d="M51 18.5122C56.7302 16.7952 69.5524 16.9579 71 30.0698L71 57.8887C71 62.4154 68 72.5122 54.7857 71.0006" stroke="white" stroke-width="3"/>
</svg>
