<svg width="71" height="71" viewBox="0 0 71 71" fill="none" xmlns="http://www.w3.org/2000/svg">
<mask id="path-1-inside-1_303_3393" fill="white">
<path d="M61.8563 42.9809C61.2832 48.9133 59.0122 54.5547 55.3152 59.2295C51.6182 63.9042 46.652 67.4142 41.0114 69.3389C35.3707 71.2637 29.2949 71.5216 23.5114 70.0819C17.7279 68.6422 12.4821 65.5658 8.40219 61.2212C4.32226 56.8766 1.58122 51.448 0.507356 45.5856C-0.56651 39.7232 0.0723241 33.6754 2.34735 28.1668C4.62237 22.6581 8.43713 17.922 13.3347 14.5257C18.2323 11.1295 24.0052 9.21699 29.9618 9.01739L30.0805 12.5611C24.8052 12.7379 19.6927 14.4316 15.3552 17.4394C11.0178 20.4472 7.63936 24.6416 5.62455 29.5202C3.60973 34.3988 3.04397 39.7548 3.99501 44.9467C4.94605 50.1386 7.37358 54.9463 10.9869 58.794C14.6001 62.6416 19.246 65.3662 24.3679 66.6412C29.4899 67.9163 34.8708 67.6878 39.8663 65.9832C44.8618 64.2786 49.2599 61.1701 52.5341 57.0301C55.8082 52.89 57.8195 47.8938 58.3271 42.64L61.8563 42.9809Z"/>
</mask>
<path d="M61.8563 42.9809C61.2832 48.9133 59.0122 54.5547 55.3152 59.2295C51.6182 63.9042 46.652 67.4142 41.0114 69.3389C35.3707 71.2637 29.2949 71.5216 23.5114 70.0819C17.7279 68.6422 12.4821 65.5658 8.40219 61.2212C4.32226 56.8766 1.58122 51.448 0.507356 45.5856C-0.56651 39.7232 0.0723241 33.6754 2.34735 28.1668C4.62237 22.6581 8.43713 17.922 13.3347 14.5257C18.2323 11.1295 24.0052 9.21699 29.9618 9.01739L30.0805 12.5611C24.8052 12.7379 19.6927 14.4316 15.3552 17.4394C11.0178 20.4472 7.63936 24.6416 5.62455 29.5202C3.60973 34.3988 3.04397 39.7548 3.99501 44.9467C4.94605 50.1386 7.37358 54.9463 10.9869 58.794C14.6001 62.6416 19.246 65.3662 24.3679 66.6412C29.4899 67.9163 34.8708 67.6878 39.8663 65.9832C44.8618 64.2786 49.2599 61.1701 52.5341 57.0301C55.8082 52.89 57.8195 47.8938 58.3271 42.64L61.8563 42.9809Z" stroke="white" stroke-width="6" mask="url(#path-1-inside-1_303_3393)"/>
<path d="M31 3.01186V40C31 40.5523 31.4477 41 32 41H67.0205C68.0762 41 68.9554 40.164 68.9831 39.1086C69.7315 10.5787 45.4206 2.55163 32.0053 2.02582C31.4488 2.00401 31 2.45497 31 3.01186Z" stroke="white" stroke-width="3"/>
<path d="M31 24H43.5C45.7091 24 47.5 25.7909 47.5 28V40" stroke="white" stroke-width="3"/>
</svg>
