<svg width="82" height="72" viewBox="0 0 82 72" fill="none" xmlns="http://www.w3.org/2000/svg">
<path d="M9.1083 3H24.8444C27.2532 3 29.3195 4.71737 29.7601 7.08546L41 67.5H20.0928C17.7122 67.5 15.6617 65.8216 15.1914 63.4879L4.20686 8.98789C3.58286 5.89187 5.95002 3 9.1083 3Z" stroke="white" stroke-width="3"/>
<path d="M30.5 8.5H72.9136C76.2227 8.5 78.6191 11.6567 77.7296 14.844L73.5435 29.844C72.9404 32.0052 70.9714 33.5 68.7276 33.5H34.686" stroke="white" stroke-width="3"/>
<path d="M36.5 42.5H63.9136C67.2227 42.5 69.6191 45.6567 68.7296 48.844L64.5435 63.844C63.9404 66.0052 61.9714 67.5 59.7276 67.5H40.686" stroke="white" stroke-width="3"/>
</svg>
