<svg width="84" height="74" viewBox="0 0 84 74" fill="none" xmlns="http://www.w3.org/2000/svg">
<path d="M41.5 17.5L28.0956 2.65943C27.7164 2.2396 27.1771 2 26.6114 2H4C2.89543 2 2 2.89543 2 4V25.7576C2 26.2365 2.17191 26.6996 2.48446 27.0626L17.5 44.5M41.5 17.5L17.5 44.5M41.5 17.5L55.4072 2.63369C55.7854 2.22943 56.3142 2 56.8677 2H80.4167C81.5533 2 82.4614 2.94594 82.415 4.08157L81.5281 25.8107C81.5099 26.2573 81.3426 26.685 81.0529 27.0254L43.0445 71.6852C42.2387 72.6321 40.7733 72.622 39.9806 71.6641L17.5 44.5" stroke="white" stroke-width="3"/>
</svg>
